<svg id="Layer_1" viewBox="0 0 512 512" xmlns="http://www.w3.org/2000/svg" data-name="Layer 1"><path d="m137.436 296.149c0 6.251-9.536 6.251-9.536 0v-61.626c0-2.564 2.164-4.728 4.728-4.728h117.643v-24.522c0-6.251 9.536-6.251 9.536 0v24.522h117.562c2.645 0 4.728 2.164 4.728 4.728v61.626c0 6.251-9.456 6.251-9.456 0v-56.818h-112.834v79.497c0 6.251-9.536 6.251-9.536 0v-79.497h-112.834v56.818zm222.143 44.236 31.975 18.432 4.087-2.324-32.055-18.512zm22.519 23.881-32.055-18.432-4.648 2.725 31.975 18.432zm-9.056-31.735 32.055 18.432 4.327-2.404c-10.739-6.171-21.397-12.341-32.055-18.512zm-26.846 57.619c-5.369-3.045-.641-11.299 4.728-8.174l15.146 8.735c5.369 3.125.721 11.299-4.728 8.174zm-.08-14.505c-5.369-3.125-.721-11.299 4.728-8.254l13.784 8.014c5.369 3.045.641 11.299-4.728 8.174zm63.63-16.428v19.714c0 1.923-1.122 3.606-2.725 4.327l-13.463 7.773c-3.206 1.763-7.052-.561-7.052-4.087l-.08-14.265-4.327 2.484v36.944c10.658-6.171 21.317-12.261 31.975-18.432v-36.944l-4.327 2.484zm-13.784 8.014v11.46l4.327-2.484v-11.54zm-15.867 57.058c-1.603 1.042-3.766 1.042-5.369 0-13.704-7.934-27.407-15.867-41.191-23.801-1.523-.881-2.324-2.484-2.324-4.087v-47.842c0-1.923 1.122-3.606 2.725-4.327 13.704-7.934 27.407-15.867 41.111-23.721 1.523-.881 3.366-.881 4.728 0 13.784 7.934 27.568 15.947 41.351 23.881 1.523.882 2.404 2.324 2.484 4.167v47.842c0 1.923-1.122 3.606-2.805 4.328-13.543 7.854-27.167 15.707-40.71 23.561zm-7.453-12.181v-36.944l-31.975-18.432v36.944c10.658 6.171 21.317 12.261 31.975 18.432zm-255.801-71.724 31.975 18.432 4.087-2.324-32.055-18.512zm22.519 23.881-32.055-18.432-4.648 2.725 31.975 18.432zm-9.056-31.735 32.055 18.432 4.247-2.404-31.975-18.512zm-26.846 57.619c-5.369-3.045-.641-11.299 4.728-8.174l15.146 8.735c5.369 3.125.641 11.299-4.728 8.174zm-.08-14.505c-5.449-3.125-.721-11.299 4.648-8.254l13.864 8.014c5.369 3.045.641 11.299-4.728 8.174zm63.63-16.428v19.714c0 1.923-1.122 3.606-2.725 4.327l-13.463 7.773c-3.206 1.763-7.132-.561-7.132-4.087v-14.265l-4.327 2.484v36.944c10.658-6.171 21.317-12.261 31.975-18.432v-36.944l-4.327 2.484zm-13.784 8.014v11.46l4.327-2.484v-11.54zm-15.947 57.058c-1.603 1.042-3.686 1.042-5.289 0-13.704-7.934-27.487-15.867-41.191-23.801-1.523-.881-2.324-2.484-2.324-4.087l-.08-47.842c0-1.923 1.202-3.606 2.805-4.327 13.704-7.934 27.327-15.867 41.031-23.721 1.603-.881 3.366-.881 4.808 0 13.784 7.934 27.567 15.947 41.351 23.881 1.443.882 2.404 2.324 2.404 4.167l.08 47.842c0 1.923-1.202 3.606-2.805 4.328-13.624 7.854-27.167 15.707-40.79 23.561zm-7.373-12.181v-36.944l-31.975-18.432v36.944c10.658 6.171 21.317 12.261 31.975 18.432zm197.701-246.825c8.495 0 15.867 5.449 18.592 13.383h18.031v-20.515h-163.562v20.515h57.94c2.645-7.934 10.097-13.383 18.512-13.383s15.867 5.449 18.512 13.383h13.463c2.645-7.934 10.097-13.383 18.512-13.383zm19.313 22.839c-1.603 9.296-9.777 16.268-19.313 16.268-9.456 0-17.63-6.972-19.233-16.268h-12.021c-1.603 9.296-9.697 16.268-19.233 16.268s-17.631-6.972-19.233-16.268h-80.218c-1.603 9.296-9.697 16.268-19.233 16.268s-17.63-6.972-19.233-16.268h-18.352c-2.645 0-4.808-2.084-4.808-4.728v-66.995c0-22.038 18.111-39.588 40.069-39.588h39.748c2.645 0 4.808 2.164 4.808 4.728v67.156h3.847v-104.419c0-2.564 2.084-4.728 4.728-4.728h159.715c2.645 0 4.728 2.164 4.728 4.728v139.12c0 2.645-2.084 4.728-4.728 4.728h-22.038zm-19.313-13.303c-5.529 0-10.017 4.408-10.017 10.017 0 5.53 4.488 10.017 10.017 10.017 5.61 0 10.097-4.488 10.097-10.017 0-5.61-4.488-10.017-10.097-10.017zm-169.171-9.536c8.415 0 15.867 5.449 18.512 13.383h14.184v-92.319h-24.282v44.397c0 2.645-2.164 4.808-4.808 4.808h-36.463v43.114h14.345c2.645-7.934 10.097-13.383 18.512-13.383zm0 9.536c-5.529 0-10.017 4.408-10.017 10.017 0 5.53 4.488 10.017 10.017 10.017 5.61 0 10.017-4.488 10.017-10.017 0-5.61-4.408-10.017-10.017-10.017zm118.685 0c-5.53 0-10.017 4.408-10.017 10.017 0 5.53 4.488 10.017 10.017 10.017 5.61 0 10.017-4.488 10.017-10.017 0-5.61-4.407-10.017-10.017-10.017zm-63.149-26.125h150.259v-99.61h-150.259v99.612zm-88.392-22.679h31.735v-39.668c-17.39 0-31.735 12.181-31.735 30.052v9.617zm115.88 244.02c-4.408-4.408 2.324-11.139 6.732-6.651l5.129 5.129 8.575-8.575c4.408-4.408 11.139 2.324 6.652 6.732l-11.861 11.86c-1.843 1.843-4.888 1.843-6.732 0zm13.543-30.132c16.188 0 29.331 13.143 29.331 29.331 0 3.686-.641 7.132-1.843 10.418l17.55 10.097c.801.481 1.443 1.202 1.843 2.004l5.129 10.338c2.725 5.369.561 11.54-4.568 14.505v26.526c0 1.843-1.122 3.446-2.725 4.247-13.944 8.094-27.968 16.108-41.912 24.202-1.603 1.122-3.847 1.202-5.449.08l-42.313-24.442c-1.523-.882-2.404-2.484-2.404-4.087v-26.526c-5.129-2.965-7.293-9.136-4.648-14.505l5.129-10.258c.401-.881 1.042-1.603 1.923-2.084l17.55-10.097c-1.282-3.286-1.923-6.732-1.923-10.418 0-16.188 13.143-29.331 29.33-29.331zm22.759 47.923c-5.61 6.812-13.864 10.738-22.759 10.738-8.815 0-17.069-3.927-22.679-10.738l-10.498 6.01 33.177 19.153 33.177-19.153zm-22.759-38.466c-10.979 0-19.794 8.895-19.794 19.874s8.815 19.874 19.794 19.874 19.874-8.895 19.874-19.874-8.895-19.874-19.874-19.874zm6.411 70.922 3.526 6.491c.401.561.641.401 1.202.16 10.578-6.251 21.237-12.502 31.895-18.672.641-.401.802-1.362.481-2.003l-2.885-5.77zm31.494 1.923c-7.052 4.087-15.547 9.697-22.599 13.223-3.446 1.843-7.373 1.603-10.498-.641v24.683c10.979-6.331 22.038-12.742 33.097-19.153v-18.111zm-42.633 12.582c-3.366 2.404-7.613 2.484-11.139.321l-21.958-12.902v18.111l33.097 19.153zm-35.902-34.299-2.885 5.77c-.321.641-.08 1.603.561 2.003 10.578 6.171 21.237 12.421 31.895 18.672.481.24.802.401 1.202-.16 1.122-2.164 2.324-4.327 3.526-6.491zm74.769-325.12c12.982 0 23.48 10.498 23.48 23.48s-10.498 23.561-23.48 23.561-23.561-10.578-23.561-23.561 10.578-23.48 23.561-23.48zm0 9.456c-7.773 0-14.024 6.251-14.024 14.024s6.251 14.024 14.024 14.024c7.693 0 13.944-6.251 13.944-14.024 0-7.693-6.251-14.024-13.944-14.024zm41.111 25.484h-4.488c-.721 2.244-1.603 4.488-2.725 6.571l3.206 3.286c1.843 1.843 1.843 4.808 0 6.651l-9.376 9.456c-1.843 1.843-4.808 1.923-6.732.08l-3.206-3.286c-2.004 1.122-4.167 2.003-6.411 2.725v4.568c0 2.645-2.164 4.728-4.808 4.728h-13.223c-2.645 0-4.808-2.084-4.808-4.728v-4.568c-2.244-.721-4.408-1.603-6.411-2.725l-3.206 3.206c-1.843 1.843-4.888 1.923-6.732.08l-9.376-9.536c-1.843-1.843-1.843-4.808 0-6.651l3.206-3.286c-1.122-2.084-2.004-4.328-2.725-6.571h-4.488c-2.645 0-4.728-2.084-4.728-4.728v-13.383c0-2.645 2.084-4.808 4.728-4.808h4.488c.721-2.244 1.603-4.488 2.725-6.571l-3.206-3.206c-1.843-1.843-1.843-4.888 0-6.732l9.376-9.456c1.843-1.843 4.808-1.843 6.732 0l3.206 3.206c2.004-1.122 4.167-2.004 6.411-2.725v-4.568c0-2.645 2.164-4.728 4.808-4.728h13.223c2.645 0 4.808 2.084 4.808 4.728v4.568c2.244.721 4.407 1.603 6.411 2.725l3.206-3.206c1.843-1.843 4.888-1.843 6.732 0l9.376 9.456c1.843 1.843 1.843 4.888 0 6.732l-3.206 3.206c1.122 2.084 2.004 4.328 2.725 6.571h4.488c2.645 0 4.728 2.164 4.728 4.808v13.383c0 2.645-2.084 4.728-4.728 4.728zm-8.174-9.456h3.446v-3.927h-3.446c-2.244 0-4.247-1.603-4.648-3.847-.721-3.766-2.164-7.212-4.247-10.338-1.202-1.843-1.042-4.327.561-6.01l2.484-2.484-2.725-2.725-2.404 2.404c-1.603 1.603-4.087 1.923-6.01.641-2.965-2.003-6.411-3.446-9.857-4.247-2.404-.24-4.247-2.244-4.247-4.728v-3.526h-3.766v3.526c0 2.244-1.603 4.247-3.847 4.648-3.606.721-7.132 2.244-10.177 4.247-1.843 1.282-4.408 1.122-6.091-.561l-2.404-2.404-2.725 2.725 2.324 2.404c1.683 1.523 2.004 4.087.721 6.091-2.004 3.045-3.446 6.491-4.167 10.097-.401 2.324-2.324 4.087-4.728 4.087h-3.446v3.927h3.446c2.244 0 4.247 1.523 4.648 3.847.721 3.686 2.164 7.132 4.247 10.338 1.202 1.843 1.042 4.328-.561 5.93l-2.484 2.484 2.725 2.805 2.404-2.484c1.603-1.603 4.087-1.843 6.01-.561 2.965 2.004 6.411 3.446 9.857 4.167 2.404.321 4.247 2.324 4.247 4.728v3.526h3.766v-3.526c0-2.244 1.603-4.167 3.847-4.648 3.606-.721 7.132-2.164 10.178-4.167 1.843-1.362 4.407-1.202 6.09.481l2.404 2.484 2.725-2.805-2.324-2.324c-1.683-1.603-2.004-4.167-.721-6.09 2.084-3.125 3.446-6.491 4.167-10.178.401-2.324 2.324-4.007 4.728-4.007z"/></svg>