<?xml version="1.0" encoding="utf-8"?>
<!-- Generator: Adobe Illustrator 26.3.0, SVG Export Plug-In . SVG Version: 6.00 Build 0)  -->
<svg version="1.1" id="Layer_1" xmlns="http://www.w3.org/2000/svg" xmlns:xlink="http://www.w3.org/1999/xlink" x="0px" y="0px"
	 viewBox="0 0 1080 1080" style="enable-background:new 0 0 1080 1080;" xml:space="preserve">
<style type="text/css">
	.st0{fill:#FFFFFF;}
	.st1{fill:#20C25F;}
</style>
<g>
	<polygon class="st0" points="262.2,498.8 262.2,527.6 153.3,527.6 153.3,394.2 170.2,377.2 184.4,377.2 184.3,394.8 184.3,498.8 	
		"/>
	<path class="st0" d="M623.4,558.6c-7.5,0-15.5,4.8-15.5,15.4c0,10.6,8,15.4,15.5,15.4c7.5,0,15.5-4.8,15.5-15.4
		C638.9,563.4,630.8,558.6,623.4,558.6"/>
	<rect x="610" y="601" class="st0" width="26.7" height="99.6"/>
	<path class="st0" d="M331.4,596.7c-9.5,0-19.4,1.5-27.1,12.1l-1.5-9.5h-24.7l-0.2,101.1h26.7l0.2-53.3c0-15,8.8-23.9,23.5-23.9
		c8,0,12.4,2.4,16.9,6.1l1.1,0.9l11.6-22.4l0.4-0.7l-0.6-0.6C351.7,600.5,341.4,596.7,331.4,596.7"/>
	<path class="st0" d="M761.6,599.3h-26.3v11.5c-6.4-8.5-17.9-13.7-30.5-13.7h-0.5c-15.1,0-28.5,5-37.7,14.2
		c-9.4,9.3-14.4,22.7-14.4,38.6c0,16.6,5,30.3,14.5,39.7c9.1,9,21.9,13.8,37,13.8h0.5c10.4-0.2,24.1-4.9,31-14.7v11.7h9.7l16.6-16.6
		v-84.3L761.6,599.3z M727.8,669.9c-5,5.8-12.2,8.9-20.8,8.9c-16.5,0-28.1-11.9-28.1-28.9c0-17.2,11.3-28.7,28.1-28.7
		c19,0,27.7,14.9,27.7,28.8C734.8,657.6,732.3,664.6,727.8,669.9"/>
	<path class="st0" d="M443.2,599.3h-0.7v11.3c-6.4-8.5-17.9-13.7-30.5-13.7h-0.5c-15.1,0-28.5,5-37.7,14.2
		c-9.4,9.3-14.3,22.7-14.3,38.6c0,16.6,5,30.3,14.5,39.7c9.1,9,21.9,13.8,37,13.8h0.5c10.4-0.2,24.2-4.9,31.1-14.8v12h1.1h25.2
		V599.3H443.2z M435,669.6c-5,5.9-12.2,9-20.8,9c-16.5,0-28.1-11.9-28.1-28.9c0-17.2,11.3-28.7,28.1-28.7c19,0,27.7,14.9,27.7,28.8
		C441.9,657.3,439.5,664.4,435,669.6"/>
	<path class="st0" d="M236.9,599.3h-0.7v11.3c-6.4-8.5-17.9-13.7-30.5-13.7h-0.5c-15.1,0-28.5,5-37.7,14.2
		c-9.4,9.3-14.3,22.7-14.3,38.6c0,16.6,5,30.3,14.5,39.7c9.1,9,21.9,13.8,37,13.8h0.5c10.4-0.2,24.2-4.9,31.1-14.8v12h1.1h25.2
		V599.3H236.9z M228.7,669.6c-5,5.9-12.2,9-20.8,9c-16.5,0-28.1-11.9-28.1-28.9c0-17.2,11.3-28.7,28.1-28.7
		c19,0,27.7,14.9,27.7,28.8C235.6,657.3,233.2,664.4,228.7,669.6"/>
	<path class="st0" d="M543.1,596.9c-10.2,0-24.3,5-31.3,13.4v-19c-10,0.6-18.9-3.2-26.7-6.6v115.5h26.3v-11.7
		c8.8,11.4,21.6,13.9,31,13.9c31.1,0,51.9-21.2,51.9-52.7C594.4,617.1,574.7,596.9,543.1,596.9 M540.9,677.6
		c-13.7,0-27.5-9.6-27.5-27.9c0-15.8,11.8-27.7,27.5-27.7c15.8,0,26.9,11.4,26.9,27.7C567.7,665.8,556.4,677.6,540.9,677.6"/>
	<path class="st0" d="M588.7,402.9c-3.7-3.5-5.5-7.9-5.5-13.2c0-5.5,1.9-10,5.6-13.4c3.8-3.5,8.5-5.2,14.3-5.2
		c5.8,0,10.6,1.7,14.3,5.2c3.8,3.5,5.6,7.9,5.6,13.4c0,5.3-1.8,9.8-5.5,13.2c-3.7,3.5-8.5,5.2-14.4,5.2
		C597.2,408.1,592.4,406.3,588.7,402.9 M586.1,420.5h34v107.1h-34V420.5z"/>
	<polygon class="st0" points="725.7,473.2 761.6,527.6 722.6,527.6 713.3,512.2 702.7,494.2 692,512.2 682.3,527.6 643.9,527.6 
		679.9,473.2 646.7,420.5 685.1,420.5 695.1,436.8 702.9,451.5 711.1,436.8 721.1,420.5 758.6,420.5 	"/>
	<path class="st0" d="M572.5,467.1c0-12.6-3.6-23-10.9-31.6l12-15.4l-21.4-16.2l-10.7,13.5c-8-5-17.1-5.7-24.2-5.7
		c-32,0-55.3,23.3-55.3,55.3c0,33.9,21.2,54.9,55.3,54.9c12.5,0,25.8,6.3,25.8,20.2c0,7.3-3.3,13.3-9,17.1c-3.3,1.9-9.1,4.4-16.2,4
		c-12.1-0.7-23.2-9.8-28.5-23h-26.8c0,28.8,23.7,47.7,55.3,47.7c5.8,0,11.3-0.6,16.4-1.8c3.6-0.8,7.9-2.1,12.5-4.2
		c10.4-4.7,19.3-12.8,22.9-23.9c1.6-5.1,2.3-10.5,2.3-15.8c0-16.5-6.4-27.4-20.6-35.3C570.9,496.5,572.5,473.9,572.5,467.1
		 M517.4,495.5c-15.7,0-26.7-11.7-26.7-28.4c0-17,11-28.9,26.7-28.9c15.4,0,26.5,12.1,26.5,28.9C543.9,483.8,533,495.5,517.4,495.5"
		/>
	<path class="st0" d="M325.7,501.5c-19.2,0-27.8-15.1-27.8-30.2c0-14.6,8.7-30.4,27.8-30.4c0,0,0.1,0,0.1,0v-26.5
		c-0.1,0-0.2,0-0.3,0c-32.7,0-56.4,23.9-56.4,56.8c0,33.5,23.3,56.8,56.6,56.8c0,0,0.1,0,0.1,0v-26.7
		C325.7,501.5,325.7,501.5,325.7,501.5"/>
	<path class="st0" d="M396.1,501.5c19.2,0,27.8-15.1,27.8-30.2c0-14.6-8.7-30.4-27.8-30.4c0,0-0.1,0-0.1,0v-26.5c0.1,0,0.2,0,0.3,0
		c32.7,0,56.4,23.9,56.4,56.8c0,33.5-23.3,56.8-56.6,56.8c0,0-0.1,0-0.1,0v-26.7C396.1,501.5,396.1,501.5,396.1,501.5"/>
	<rect x="325.8" y="414.5" class="st0" width="71.6" height="26.4"/>
	<polygon class="st1" points="147.9,372 147.9,394.2 170.2,372 	"/>
	<polygon class="st1" points="766.1,708.4 766.1,686.2 743.8,708.4 	"/>
	<rect x="325.8" y="495.9" class="st1" width="71.6" height="32.2"/>
	<path class="st1" d="M347.1,403.9c-3.7-3.5-5.5-7.9-5.5-13.2c0-5.5,1.9-10,5.6-13.4c3.8-3.5,8.5-5.2,14.3-5.2
		c5.8,0,10.5,1.7,14.3,5.2c3.8,3.5,5.6,7.9,5.6,13.4c0,5.3-1.8,9.8-5.5,13.2c-3.7,3.5-8.5,5.2-14.4,5.2
		C355.6,409.1,350.8,407.3,347.1,403.9"/>
	<g>
		<polygon class="st1" points="779.8,708.4 948,708.4 948,540.2 947,541.2 		"/>
		<polygon class="st1" points="779.8,372 948,372 948,540.2 947,539.2 		"/>
	</g>
</g>
</svg>
